<svg width="24" height="24" viewBox="0 0 24 24" fill="none" xmlns="http://www.w3.org/2000/svg">
<path fill-rule="evenodd" clip-rule="evenodd" d="M11.1869 2.24413C11.4926 2.11749 11.8445 2.18749 12.0785 2.42149L16.5785 6.92149C16.8981 7.24101 16.8981 7.75905 16.5785 8.07857L12.6571 12L16.5785 15.9215C16.8981 16.241 16.8981 16.7591 16.5785 17.0786L12.0785 21.5786C11.8445 21.8126 11.4926 21.8826 11.1869 21.7559C10.8812 21.6293 10.6818 21.331 10.6818 21V13.9753L7.57855 17.0786C7.25903 17.3981 6.74098 17.3981 6.42146 17.0786C6.10194 16.7591 6.10194 16.241 6.42146 15.9215L10.3429 12L6.42146 8.07857C6.10194 7.75905 6.10194 7.24101 6.42146 6.92149C6.74098 6.60197 7.25903 6.60197 7.57855 6.92149L10.6818 10.0248V3.00003C10.6818 2.66911 10.8812 2.37077 11.1869 2.24413ZM12.3182 13.9753L14.8429 16.5L12.3182 19.0248V13.9753ZM12.3182 10.0248V4.9753L14.8429 7.50003L12.3182 10.0248Z" fill="#80EBB6"/>
</svg>
