<svg width="24" height="24" viewBox="0 0 24 24" fill="none" xmlns="http://www.w3.org/2000/svg">
<path d="M8 20H16V17C16 15.9 15.6083 14.9583 14.825 14.175C14.0417 13.3917 13.1 13 12 13C10.9 13 9.95833 13.3917 9.175 14.175C8.39167 14.9583 8 15.9 8 17V20ZM12 11C13.1 11 14.0417 10.6083 14.825 9.825C15.6083 9.04167 16 8.1 16 7V4H8V7C8 8.1 8.39167 9.04167 9.175 9.825C9.95833 10.6083 10.9 11 12 11ZM5 22C4.44772 22 4 21.5523 4 21C4 20.4477 4.44772 20 5 20H6V17C6 15.9833 6.2375 15.0292 6.7125 14.1375C7.1875 13.2458 7.85 12.5333 8.7 12C7.85 11.4667 7.1875 10.7542 6.7125 9.8625C6.2375 8.97083 6 8.01667 6 7V4H5C4.44772 4 4 3.55228 4 3C4 2.44772 4.44772 2 5 2H19C19.5523 2 20 2.44772 20 3C20 3.55228 19.5523 4 19 4H18V7C18 8.01667 17.7625 8.97083 17.2875 9.8625C16.8125 10.7542 16.15 11.4667 15.3 12C16.15 12.5333 16.8125 13.2458 17.2875 14.1375C17.7625 15.0292 18 15.9833 18 17V20H19C19.5523 20 20 20.4477 20 21C20 21.5523 19.5523 22 19 22H5Z" fill="#80EBB6"/>
<path d="M17 22H7L7 18C7 15.2386 9.23858 13 12 13C14.7614 13 17 15.2386 17 18V22Z" fill="#80EBB6"/>
</svg>
